<svg xmlns="http://www.w3.org/2000/svg" version="1.1" xmlns:xlink="http://www.w3.org/1999/xlink" xmlns:svgjs="http://svgjs.dev/svgjs" width="1500" height="1500" viewBox="0 0 1500 1500"><rect width="1500" height="1500" fill="#ffffff"></rect><g transform="matrix(0.6666666666666666,0,0,0.6666666666666666,249.39393939393938,435.99032258064517)"><svg viewBox="0 0 396 248" data-background-color="#ffffff" preserveAspectRatio="xMidYMid meet" height="939" width="1500" xmlns="http://www.w3.org/2000/svg" xmlns:xlink="http://www.w3.org/1999/xlink"><g id="tight-bounds" transform="matrix(1,0,0,1,0.2400000000000091,0.4000000000000057)"><svg viewBox="0 0 395.52 247.2" height="247.2" width="395.52"><g><svg></svg></g><g><svg viewBox="0 0 395.52 247.2" height="247.2" width="395.52"><g><path d="M55.039 247.2l26.403-45.732 1.774 0-25.468 44.112h280.024l-25.468-44.112 1.774 0 26.403 45.732zM197.76 0l26.403 45.732-1.773 0-24.63-42.66-24.63 42.66-1.773 0z" fill="#336a86" fill-rule="nonzero" stroke="none" stroke-width="1" stroke-linecap="butt" stroke-linejoin="miter" stroke-miterlimit="10" stroke-dasharray="" stroke-dashoffset="0" font-family="none" font-weight="none" font-size="none" text-anchor="none" style="mix-blend-mode: normal" data-fill-palette-color="tertiary"></path></g><g transform="matrix(1,0,0,1,16.4800594193224,67.97999999999999)"><svg viewBox="0 0 362.5598811613552 111.24" height="111.24" width="362.5598811613552"><g><svg viewBox="0 0 397.4975999999999 121.95953088455805" height="111.24" width="362.5598811613552"><g><rect width="397.4975999999999" height="2.5724501322081657" x="0" y="68.18660598973105" fill="#336a86" opacity="1" stroke-width="0" stroke="transparent" fill-opacity="1" class="rect-yte-0" data-fill-palette-color="primary" rx="1%" id="yte-0" data-palette-color="#336a86"></rect></g><g transform="matrix(1,0,0,1,0.9887999999999693,77.4932187716988)"><svg viewBox="0 0 395.52 44.46631211285923" height="44.46631211285923" width="395.52"><g id="textblocktransform"><svg viewBox="0 0 395.52 44.46631211285923" height="44.46631211285923" width="395.52" id="textblock"><g><svg viewBox="0 0 395.52 28.525401352782982" height="28.525401352782982" width="395.52"><g transform="matrix(1,0,0,1,0,0)"><svg width="395.52" viewBox="0.7 -39.6 609.8999999999999 44.25" height="28.525401352782982" data-palette-color="#336a86"><g class="wordmark-text-0" data-fill-palette-color="primary" id="text-0"><path d="M0.7 0L0.7-34.55 28.75-34.55 28.75-20 17.95-20 17.95-18 28.75-18 28.75-11 17.95-11 17.95 0 0.7 0ZM60.25-18.9L60.25-18.9 60-12.75 61.25-12.8 61.25-1.45Q60.35-0.7 58.15-0.1 55.95 0.5 54 0.5 52.05 0.5 50.9 0.15 49.75-0.2 49.2-0.63 48.65-1.05 48.35-1.6L48.35-1.6Q47.9-2.4 47.9-2.95L47.9-2.95Q45.15 0.5 39.15 0.5L39.15 0.5Q30.9 0.5 30.9-6.5L30.9-6.5Q30.9-10.7 34.1-12.48 37.3-14.25 45.3-14.6L45.3-14.6Q45.3-16.35 41.45-16.35L41.45-16.35Q38.85-16.35 36.47-15.7 34.1-15.05 33.05-14.4L33.05-14.4 31.95-13.75 31.95-26.9Q32.4-27.25 33.3-27.78 34.2-28.3 37.55-29.18 40.9-30.05 44.9-30.05L44.9-30.05Q52.9-30.05 56.57-27.35 60.25-24.65 60.25-18.9ZM46.1-10.95L46.1-10.95 46.1-12.95 43.25-12.15 43.25-10.95Q43.25-10.3 43.67-9.9 44.1-9.5 44.72-9.5 45.35-9.5 45.72-9.9 46.1-10.3 46.1-10.95ZM90.59-12.85L90.59-1Q87.34 0.5 79.14 0.5 70.94 0.5 67.37-3.25 63.8-7 63.8-14.9 63.8-22.8 67.8-26.43 71.8-30.05 79.8-30.05L79.8-30.05Q83.39-30.05 86.09-29.55 88.8-29.05 89.69-28.55L89.69-28.55 90.59-28.05 90.59-14.85 80.34-14.85 80.34-12.65Q81.25-12.5 83.39-12.5L83.39-12.5Q87-12.5 89.84-12.8L89.84-12.8 90.59-12.85ZM100.84-27.1Q97.04-27.1 95.24-28.6 93.44-30.1 93.44-33.4 93.44-36.7 95.27-38.15 97.09-39.6 100.84-39.6L100.84-39.6Q108.34-39.6 108.34-33.55L108.34-33.55Q108.34-30.1 106.49-28.6 104.64-27.1 100.84-27.1ZM108.34 0L93.44 0 93.44-25.95 108.34-25.95 108.34 0ZM111.24-7.35L111.24-7.35 111.24-37.25 126.24-37.25 126.24-12.85 127.29-12.85 127.29-0.55Q124.64 0.5 119.92 0.5 115.19 0.5 113.22-1.45 111.24-3.4 111.24-7.35ZM136.89-27.1Q133.09-27.1 131.29-28.6 129.49-30.1 129.49-33.4 129.49-36.7 131.31-38.15 133.14-39.6 136.89-39.6L136.89-39.6Q144.39-39.6 144.39-33.55L144.39-33.55Q144.39-30.1 142.54-28.6 140.69-27.1 136.89-27.1ZM144.39 0L129.49 0 129.49-25.95 144.39-25.95 144.39 0ZM169.64-15.6L165.14-15.6 165.14-13.35 169.64-13.35 169.64-1.55Q169.39-1.3 168.81-0.98 168.24-0.65 165.84-0.08 163.44 0.5 160.29 0.5L160.29 0.5Q148.84 0.5 148.84-9.5L148.84-9.5 148.84-15.6 146.89-15.6 146.89-28.05Q149.04-28.7 150.69-30.45 152.34-32.2 152.94-33.6L152.94-33.6 153.54-35.05 166.09-35.05 166.09-29.55 169.64-29.55 169.64-15.6ZM186.03-29.55L187.03-11.65 188.33-11.65 189.23-29.55 203.13-29.55 198.73 4.65 182.93 4.65 184.03-0.5Q179.73-0.5 177.76-1.83 175.78-3.15 175.28-6.35L175.28-6.35 171.78-29.55 186.03-29.55Z" fill="#336a86" data-fill-palette-color="primary"></path><path d="M241.88-34.55L259.13-34.55 259.13 0 241.88 0 241.88-12.5 239.68-6.7 238.38-6.7 236.08-12.5 236.08 0 218.88 0 218.88-34.55 236.08-34.55 238.38-27.9 239.68-27.9 241.88-34.55ZM291.33-18.9L291.33-18.9 291.08-12.75 292.33-12.8 292.33-1.45Q291.43-0.7 289.22-0.1 287.03 0.5 285.08 0.5 283.13 0.5 281.97 0.15 280.83-0.2 280.28-0.63 279.72-1.05 279.43-1.6L279.43-1.6Q278.97-2.4 278.97-2.95L278.97-2.95Q276.22 0.5 270.22 0.5L270.22 0.5Q261.98 0.5 261.98-6.5L261.98-6.5Q261.98-10.7 265.18-12.48 268.38-14.25 276.38-14.6L276.38-14.6Q276.38-16.35 272.53-16.35L272.53-16.35Q269.93-16.35 267.55-15.7 265.18-15.05 264.13-14.4L264.13-14.4 263.03-13.75 263.03-26.9Q263.48-27.25 264.38-27.78 265.28-28.3 268.63-29.18 271.97-30.05 275.97-30.05L275.97-30.05Q283.97-30.05 287.65-27.35 291.33-24.65 291.33-18.9ZM277.18-10.95L277.18-10.95 277.18-12.95 274.33-12.15 274.33-10.95Q274.33-10.3 274.75-9.9 275.18-9.5 275.8-9.5 276.43-9.5 276.8-9.9 277.18-10.3 277.18-10.95ZM294.87-14.73Q294.87-22.35 298.35-26.2 301.82-30.05 309.72-30.05 317.62-30.05 320.72-26.85 323.82-23.65 323.82-16.35L323.82-16.35 323.57-12.5 309.77-12.5 309.77-10.8Q311.02-10.5 313.42-10.5L313.42-10.5Q318.52-10.5 321.67-10.95L321.67-10.95 322.72-11.1 322.72-1.7Q322.32-1.45 321.45-1.07 320.57-0.7 317.27-0.1 313.97 0.5 309.92 0.5L309.92 0.5Q301.92 0.5 298.4-3.3 294.87-7.1 294.87-14.73ZM309.02-16.95L309.02-16.95 309.02-15 311.87-15 311.87-16.95Q311.87-17.6 311.45-18 311.02-18.4 310.4-18.4 309.77-18.4 309.4-18 309.02-17.6 309.02-16.95ZM340.22-30.05L340.22-30.05Q344.17-30.05 347.35-29.6 350.52-29.15 351.72-28.7L351.72-28.7 352.87-28.25 352.87-15.75Q349.47-17.5 342.72-17.5L342.72-17.5 342.72-16.3Q348.92-15.7 351.22-14.15 353.52-12.6 353.52-8.5 353.52-4.4 350.47-1.95 347.42 0.5 339.82 0.5L339.82 0.5Q335.77 0.5 332.62 0.05 329.47-0.4 328.32-0.85L328.32-0.85 327.17-1.3 327.17-12.15Q328.57-11.45 331.5-10.88 334.42-10.3 337.52-10.3L337.52-10.3 337.52-11.5Q332.17-12 329.42-13.95 326.67-15.9 326.67-20.28 326.67-24.65 330.02-27.35 333.37-30.05 340.22-30.05ZM378.57-15.6L374.07-15.6 374.07-13.35 378.57-13.35 378.57-1.55Q378.32-1.3 377.74-0.98 377.17-0.65 374.77-0.08 372.37 0.5 369.22 0.5L369.22 0.5Q357.77 0.5 357.77-9.5L357.77-9.5 357.77-15.6 355.82-15.6 355.82-28.05Q357.97-28.7 359.62-30.45 361.27-32.2 361.87-33.6L361.87-33.6 362.47-35.05 375.02-35.05 375.02-29.55 378.57-29.55 378.57-15.6ZM396.37-14.35L396.37 0 381.47 0 381.47-29.55 394.02-29.55 394.52-25.9Q394.62-26.05 394.77-26.3 394.92-26.55 395.62-27.18 396.32-27.8 397.22-28.3L397.22-28.3Q399.72-29.55 403.52-29.55L403.52-29.55 403.52-13.65 396.37-14.35ZM421.91 0.45L421.91 0.45 419.91 0.45Q412.61 0.45 408.99-3.15 405.36-6.75 405.36-14.75 405.36-22.75 408.99-26.4 412.61-30.05 419.91-30.05L419.91-30.05 421.91-30.05Q429.21-30.05 432.86-26.4 436.51-22.75 436.51-14.75 436.51-6.75 432.89-3.15 429.26 0.45 421.91 0.45ZM419.51-15.15L419.51-15.15 419.51-10.95Q419.51-10.3 419.89-9.9 420.26-9.5 420.89-9.5 421.51-9.5 421.94-9.9 422.36-10.3 422.36-10.95L422.36-10.95 422.36-15.15Q422.36-15.75 421.94-16.18 421.51-16.6 420.91-16.6 420.31-16.6 419.91-16.18 419.51-15.75 419.51-15.15Z" fill="#8eaec4" data-fill-palette-color="secondary"></path><path d="M469.46 0L452.26 0 452.26-34.55 469.46-34.55 469.46 0ZM478.36-20L472.36-20 472.36-34.55 503.16-34.55 503.16-20 497.06-20 497.06 0 478.36 0 478.36-20Z" fill="#283132" data-fill-palette-color="accent"></path><path d="M518.91 0L518.91-34.55 536.96-34.55Q545.31-34.55 549.73-30.55 554.16-26.55 554.16-17.5L554.16-17.5Q554.16 0 536.26 0L536.26 0 518.91 0ZM537.11-20L535.71-20 535.71-11.35 537.11-11.35Q537.71-11.35 538.13-11.75 538.56-12.15 538.56-12.8L538.56-12.8 538.56-18.6Q538.56-19.2 538.13-19.6 537.71-20 537.11-20L537.11-20ZM557.01 0L557.01-34.55 585-34.55 585-20 574.21-20 574.21-18 585-18 585-14.85 574.21-14.85 574.21-12.85 585.46-12.85 585.46 0 557.01 0ZM588.3 0L588.3-34.55 605.5-34.55 605.5-12.85 610.6-12.85 610.6 0 588.3 0Z" fill="#336a86" data-fill-palette-color="primary"></path></g></svg></g></svg></g><g transform="matrix(1,0,0,1,75.54432,35.259564002542575)"><svg viewBox="0 0 244.43135999999998 9.206748110316648" height="9.206748110316648" width="244.43135999999998"><g transform="matrix(1,0,0,1,0,0)"><svg width="244.43135999999998" viewBox="0.7 -39.6 1174.7 44.25000000000001" height="9.206748110316648" data-palette-color="#8eaec4"><path d="M17.95-35.05L17.95-35.05 22.1-35.05Q31.1-35.05 35.2-30.8 39.3-26.55 39.3-17.45 39.3-8.35 35.18-3.93 31.05 0.5 22.1 0.5L22.1 0.5 17.95 0.5Q9 0.5 4.85-3.93 0.7-8.35 0.7-17.45 0.7-26.55 4.83-30.8 8.95-35.05 17.95-35.05ZM18.6-18.6L18.6-18.6 18.6-12.8Q18.6-12.15 18.98-11.75 19.35-11.35 19.98-11.35 20.6-11.35 21.03-11.75 21.45-12.15 21.45-12.8L21.45-12.8 21.45-18.6Q21.45-19.2 21.03-19.6 20.6-20 19.98-20 19.35-20 18.98-19.6 18.6-19.2 18.6-18.6ZM60.45 0.5L60.45 0.5Q57.8 0.5 56.4-0.5L56.4-0.5 56.4 4.65 41.5 4.65 41.5-29.55 54.05-29.55 54.55-25.9Q55.45-28.55 58.55-29.6L58.55-29.6Q59.85-30.05 61.45-30.05L61.45-30.05Q67.05-30.05 69.85-25.78 72.65-21.5 72.65-14.55 72.65-7.6 69.47-3.55 66.3 0.5 60.45 0.5ZM55.65-15.15L55.65-15.15 55.65-10.95Q55.65-10.3 56.02-9.9 56.4-9.5 57.02-9.5 57.65-9.5 58.07-9.9 58.5-10.3 58.5-10.95L58.5-10.95 58.5-15.15Q58.5-15.75 58.07-16.18 57.65-16.6 57.05-16.6 56.45-16.6 56.05-16.18 55.65-15.75 55.65-15.15ZM97.9-15.6L93.4-15.6 93.4-13.35 97.9-13.35 97.9-1.55Q97.65-1.3 97.07-0.98 96.5-0.65 94.1-0.08 91.7 0.5 88.55 0.5L88.55 0.5Q77.1 0.5 77.1-9.5L77.1-9.5 77.1-15.6 75.15-15.6 75.15-28.05Q77.3-28.7 78.95-30.45 80.6-32.2 81.2-33.6L81.2-33.6 81.8-35.05 94.35-35.05 94.35-29.55 97.9-29.55 97.9-15.6ZM108.19-27.1Q104.39-27.1 102.59-28.6 100.79-30.1 100.79-33.4 100.79-36.7 102.62-38.15 104.44-39.6 108.19-39.6L108.19-39.6Q115.69-39.6 115.69-33.55L115.69-33.55Q115.69-30.1 113.84-28.6 111.99-27.1 108.19-27.1ZM115.69 0L100.79 0 100.79-25.95 115.69-25.95 115.69 0ZM165.24 0L151.09 0 151.09-15.85Q151.09-16.45 150.67-16.88 150.24-17.3 149.64-17.3 149.04-17.3 148.64-16.88 148.24-16.45 148.24-15.85L148.24-15.85 148.24 0 134.89 0 134.89-15.85Q134.89-16.45 134.47-16.88 134.04-17.3 133.42-17.3 132.79-17.3 132.39-16.88 131.99-16.45 131.99-15.85L131.99-15.85 131.99 0 117.84 0 117.84-29.55 130.44-29.55 130.94-25.9Q131.14-26.45 131.84-27.25 132.54-28.05 133.34-28.6L133.34-28.6Q135.54-30.05 139.14-30.05L139.14-30.05Q144.99-30.05 147.29-26.15L147.29-26.15Q147.69-26.9 148.34-27.63 148.99-28.35 150.92-29.2 152.84-30.05 155.39-30.05L155.39-30.05Q160.29-30.05 162.77-27.35 165.24-24.65 165.24-19.5L165.24-19.5 165.24 0ZM196.79-18.9L196.79-18.9 196.54-12.75 197.79-12.8 197.79-1.45Q196.89-0.7 194.69-0.1 192.49 0.5 190.54 0.5 188.59 0.5 187.44 0.15 186.29-0.2 185.74-0.63 185.19-1.05 184.89-1.6L184.89-1.6Q184.44-2.4 184.44-2.95L184.44-2.95Q181.69 0.5 175.69 0.5L175.69 0.5Q167.44 0.5 167.44-6.5L167.44-6.5Q167.44-10.7 170.64-12.48 173.84-14.25 181.84-14.6L181.84-14.6Q181.84-16.35 177.99-16.35L177.99-16.35Q175.39-16.35 173.01-15.7 170.64-15.05 169.59-14.4L169.59-14.4 168.49-13.75 168.49-26.9Q168.94-27.25 169.84-27.78 170.74-28.3 174.09-29.18 177.44-30.05 181.44-30.05L181.44-30.05Q189.44-30.05 193.11-27.35 196.79-24.65 196.79-18.9ZM182.64-10.95L182.64-10.95 182.64-12.95 179.79-12.15 179.79-10.95Q179.79-10.3 180.21-9.9 180.64-9.5 181.26-9.5 181.89-9.5 182.26-9.9 182.64-10.3 182.64-10.95ZM200.34-7.35L200.34-7.35 200.34-37.25 215.34-37.25 215.34-12.85 216.39-12.85 216.39-0.55Q213.74 0.5 209.01 0.5 204.29 0.5 202.31-1.45 200.34-3.4 200.34-7.35ZM225.98-27.1Q222.18-27.1 220.38-28.6 218.58-30.1 218.58-33.4 218.58-36.7 220.41-38.15 222.23-39.6 225.98-39.6L225.98-39.6Q233.48-39.6 233.48-33.55L233.48-33.55Q233.48-30.1 231.63-28.6 229.78-27.1 225.98-27.1ZM233.48 0L218.58 0 218.58-25.95 233.48-25.95 233.48 0ZM249.93-30.05L249.93-30.05Q253.88-30.05 257.06-29.6 260.23-29.15 261.43-28.7L261.43-28.7 262.58-28.25 262.58-15.75Q259.18-17.5 252.43-17.5L252.43-17.5 252.43-16.3Q258.63-15.7 260.93-14.15 263.23-12.6 263.23-8.5 263.23-4.4 260.18-1.95 257.13 0.5 249.53 0.5L249.53 0.5Q245.48 0.5 242.33 0.05 239.18-0.4 238.03-0.85L238.03-0.85 236.88-1.3 236.88-12.15Q238.28-11.45 241.21-10.88 244.13-10.3 247.23-10.3L247.23-10.3 247.23-11.5Q241.88-12 239.13-13.95 236.38-15.9 236.38-20.28 236.38-24.65 239.73-27.35 243.08-30.05 249.93-30.05ZM295.28-18.9L295.28-18.9 295.03-12.75 296.28-12.8 296.28-1.45Q295.38-0.7 293.18-0.1 290.98 0.5 289.03 0.5 287.08 0.5 285.93 0.15 284.78-0.2 284.23-0.63 283.68-1.05 283.38-1.6L283.38-1.6Q282.93-2.4 282.93-2.95L282.93-2.95Q280.18 0.5 274.18 0.5L274.18 0.5Q265.93 0.5 265.93-6.5L265.93-6.5Q265.93-10.7 269.13-12.48 272.33-14.25 280.33-14.6L280.33-14.6Q280.33-16.35 276.48-16.35L276.48-16.35Q273.88-16.35 271.5-15.7 269.13-15.05 268.08-14.4L268.08-14.4 266.98-13.75 266.98-26.9Q267.43-27.25 268.33-27.78 269.23-28.3 272.58-29.18 275.93-30.05 279.93-30.05L279.93-30.05Q287.93-30.05 291.6-27.35 295.28-24.65 295.28-18.9ZM281.13-10.95L281.13-10.95 281.13-12.95 278.28-12.15 278.28-10.95Q278.28-10.3 278.7-9.9 279.13-9.5 279.75-9.5 280.38-9.5 280.75-9.9 281.13-10.3 281.13-10.95ZM312.38-30.05L312.38-30.05Q316.32-30.05 319.5-29.6 322.68-29.15 323.88-28.7L323.88-28.7 325.02-28.25 325.02-15.75Q321.63-17.5 314.88-17.5L314.88-17.5 314.88-16.3Q321.07-15.7 323.38-14.15 325.68-12.6 325.68-8.5 325.68-4.4 322.63-1.95 319.57 0.5 311.98 0.5L311.98 0.5Q307.93 0.5 304.77 0.05 301.63-0.4 300.48-0.85L300.48-0.85 299.32-1.3 299.32-12.15Q300.73-11.45 303.65-10.88 306.57-10.3 309.68-10.3L309.68-10.3 309.68-11.5Q304.32-12 301.57-13.95 298.82-15.9 298.82-20.28 298.82-24.65 302.18-27.35 305.52-30.05 312.38-30.05ZM335.77-27.1Q331.97-27.1 330.17-28.6 328.37-30.1 328.37-33.4 328.37-36.7 330.2-38.15 332.02-39.6 335.77-39.6L335.77-39.6Q343.27-39.6 343.27-33.55L343.27-33.55Q343.27-30.1 341.42-28.6 339.57-27.1 335.77-27.1ZM343.27 0L328.37 0 328.37-25.95 343.27-25.95 343.27 0ZM359.72 0L359.72-34.55 387.77-34.55 387.77-20 376.97-20 376.97-18 387.77-18 387.77-11 376.97-11 376.97 0 359.72 0ZM419.27-18.9L419.27-18.9 419.02-12.75 420.27-12.8 420.27-1.45Q419.37-0.7 417.17-0.1 414.97 0.5 413.02 0.5 411.07 0.5 409.92 0.15 408.77-0.2 408.22-0.63 407.67-1.05 407.37-1.6L407.37-1.6Q406.92-2.4 406.92-2.95L406.92-2.95Q404.17 0.5 398.17 0.5L398.17 0.5Q389.92 0.5 389.92-6.5L389.92-6.5Q389.92-10.7 393.12-12.48 396.32-14.25 404.32-14.6L404.32-14.6Q404.32-16.35 400.47-16.35L400.47-16.35Q397.87-16.35 395.49-15.7 393.12-15.05 392.07-14.4L392.07-14.4 390.97-13.75 390.97-26.9Q391.42-27.25 392.32-27.78 393.22-28.3 396.57-29.18 399.92-30.05 403.92-30.05L403.92-30.05Q411.92-30.05 415.59-27.35 419.27-24.65 419.27-18.9ZM405.12-10.95L405.12-10.95 405.12-12.95 402.27-12.15 402.27-10.95Q402.27-10.3 402.69-9.9 403.12-9.5 403.74-9.5 404.37-9.5 404.74-9.9 405.12-10.3 405.12-10.95ZM436.36-30.05L436.36-30.05Q440.31-30.05 443.49-29.6 446.66-29.15 447.86-28.7L447.86-28.7 449.01-28.25 449.01-15.75Q445.61-17.5 438.86-17.5L438.86-17.5 438.86-16.3Q445.06-15.7 447.36-14.15 449.66-12.6 449.66-8.5 449.66-4.4 446.61-1.95 443.56 0.5 435.96 0.5L435.96 0.5Q431.91 0.5 428.76 0.05 425.61-0.4 424.46-0.85L424.46-0.85 423.31-1.3 423.31-12.15Q424.71-11.45 427.64-10.88 430.56-10.3 433.66-10.3L433.66-10.3 433.66-11.5Q428.31-12 425.56-13.95 422.81-15.9 422.81-20.28 422.81-24.65 426.16-27.35 429.51-30.05 436.36-30.05ZM459.76-27.1Q455.96-27.1 454.16-28.6 452.36-30.1 452.36-33.4 452.36-36.7 454.19-38.15 456.01-39.6 459.76-39.6L459.76-39.6Q467.26-39.6 467.26-33.55L467.26-33.55Q467.26-30.1 465.41-28.6 463.56-27.1 459.76-27.1ZM467.26 0L452.36 0 452.36-25.95 467.26-25.95 467.26 0ZM470.16-7.35L470.16-7.35 470.16-37.25 485.16-37.25 485.16-12.85 486.21-12.85 486.21-0.55Q483.56 0.5 478.83 0.5 474.11 0.5 472.13-1.45 470.16-3.4 470.16-7.35ZM495.81-27.1Q492.01-27.1 490.21-28.6 488.41-30.1 488.41-33.4 488.41-36.7 490.23-38.15 492.06-39.6 495.81-39.6L495.81-39.6Q503.31-39.6 503.31-33.55L503.31-33.55Q503.31-30.1 501.46-28.6 499.61-27.1 495.81-27.1ZM503.31 0L488.41 0 488.41-25.95 503.31-25.95 503.31 0ZM528.55-15.6L524.05-15.6 524.05-13.35 528.55-13.35 528.55-1.55Q528.3-1.3 527.73-0.98 527.15-0.65 524.75-0.08 522.35 0.5 519.2 0.5L519.2 0.5Q507.75 0.5 507.75-9.5L507.75-9.5 507.75-15.6 505.8-15.6 505.8-28.05Q507.95-28.7 509.6-30.45 511.25-32.2 511.85-33.6L511.85-33.6 512.45-35.05 525-35.05 525-29.55 528.55-29.55 528.55-15.6ZM560.8-18.9L560.8-18.9 560.55-12.75 561.8-12.8 561.8-1.45Q560.9-0.7 558.7-0.1 556.5 0.5 554.55 0.5 552.6 0.5 551.45 0.15 550.3-0.2 549.75-0.63 549.2-1.05 548.9-1.6L548.9-1.6Q548.45-2.4 548.45-2.95L548.45-2.95Q545.7 0.5 539.7 0.5L539.7 0.5Q531.45 0.5 531.45-6.5L531.45-6.5Q531.45-10.7 534.65-12.48 537.85-14.25 545.85-14.6L545.85-14.6Q545.85-16.35 542-16.35L542-16.35Q539.4-16.35 537.02-15.7 534.65-15.05 533.6-14.4L533.6-14.4 532.5-13.75 532.5-26.9Q532.95-27.25 533.85-27.78 534.75-28.3 538.1-29.18 541.45-30.05 545.45-30.05L545.45-30.05Q553.45-30.05 557.13-27.35 560.8-24.65 560.8-18.9ZM546.65-10.95L546.65-10.95 546.65-12.95 543.8-12.15 543.8-10.95Q543.8-10.3 544.23-9.9 544.65-9.5 545.27-9.5 545.9-9.5 546.27-9.9 546.65-10.3 546.65-10.95ZM577.9-30.05L577.9-30.05Q581.85-30.05 585.02-29.6 588.2-29.15 589.4-28.7L589.4-28.7 590.55-28.25 590.55-15.75Q587.15-17.5 580.4-17.5L580.4-17.5 580.4-16.3Q586.6-15.7 588.9-14.15 591.2-12.6 591.2-8.5 591.2-4.4 588.15-1.95 585.1 0.5 577.5 0.5L577.5 0.5Q573.45 0.5 570.3 0.05 567.15-0.4 566-0.85L566-0.85 564.85-1.3 564.85-12.15Q566.25-11.45 569.17-10.88 572.1-10.3 575.2-10.3L575.2-10.3 575.2-11.5Q569.85-12 567.1-13.95 564.35-15.9 564.35-20.28 564.35-24.65 567.7-27.35 571.05-30.05 577.9-30.05ZM643.44 0L626.84 0 626.54-5.35 623.49-5.35 623.19 0 607.44 0Q607.94-8.2 609.49-16.82 611.04-25.45 612.34-30L612.34-30 613.59-34.55 637.29-34.55Q637.84-32.75 638.69-29.55 639.54-26.35 641.19-17.28 642.84-8.2 643.44 0L643.44 0ZM625.84-17.75L624.24-17.75 623.84-9.95 626.19-9.95 625.84-17.75ZM659.74-15.85L659.74-15.85 659.74 0 645.59 0 645.59-29.55 658.14-29.55 658.64-25.9Q658.84-26.45 659.54-27.25 660.24-28.05 661.04-28.6L661.04-28.6Q663.24-30.05 666.89-30.05L666.89-30.05Q671.79-30.05 674.26-27.35 676.74-24.65 676.74-19.5L676.74-19.5 676.74 0 662.59 0 662.59-15.85Q662.59-16.45 662.16-16.88 661.74-17.3 661.14-17.3 660.54-17.3 660.14-16.88 659.74-16.45 659.74-15.85ZM710.79-37.25L710.79 0 698.19 0 697.69-3.65Q697.49-3.1 696.86-2.3 696.24-1.5 695.54-0.95L695.54-0.95Q693.69 0.5 690.79 0.5L690.79 0.5Q685.54 0.5 682.59-3.5 679.64-7.5 679.64-14.68 679.64-21.85 682.64-25.95 685.64-30.05 690.84-30.05L690.84-30.05Q692.44-30.05 693.69-29.68 694.94-29.3 695.39-28.95L695.39-28.95 695.84-28.6 695.84-37.25 710.79-37.25ZM693.79-15.15L693.79-15.15 693.79-10.95Q693.79-10.3 694.16-9.9 694.54-9.5 695.16-9.5 695.79-9.5 696.21-9.9 696.64-10.3 696.64-10.95L696.64-10.95 696.64-15.15Q696.64-15.75 696.21-16.18 695.79-16.6 695.19-16.6 694.59-16.6 694.19-16.18 693.79-15.75 693.79-15.15ZM743.03-18.9L743.03-18.9 742.78-12.75 744.03-12.8 744.03-1.45Q743.13-0.7 740.93-0.1 738.73 0.5 736.78 0.5 734.83 0.5 733.68 0.15 732.53-0.2 731.98-0.63 731.43-1.05 731.13-1.6L731.13-1.6Q730.68-2.4 730.68-2.95L730.68-2.95Q727.93 0.5 721.93 0.5L721.93 0.5Q713.68 0.5 713.68-6.5L713.68-6.5Q713.68-10.7 716.88-12.48 720.08-14.25 728.08-14.6L728.08-14.6Q728.08-16.35 724.23-16.35L724.23-16.35Q721.63-16.35 719.26-15.7 716.88-15.05 715.83-14.4L715.83-14.4 714.73-13.75 714.73-26.9Q715.18-27.25 716.08-27.78 716.98-28.3 720.33-29.18 723.68-30.05 727.68-30.05L727.68-30.05Q735.68-30.05 739.36-27.35 743.03-24.65 743.03-18.9ZM728.88-10.95L728.88-10.95 728.88-12.95 726.03-12.15 726.03-10.95Q726.03-10.3 726.46-9.9 726.88-9.5 727.51-9.5 728.13-9.5 728.51-9.9 728.88-10.3 728.88-10.95ZM746.13-8.2L746.13-8.2Q746.13-12.5 748.41-14.4 750.68-16.3 756.06-16.3 761.43-16.3 763.76-14.38 766.08-12.45 766.08-8.2L766.08-8.2Q766.08-5.35 765.38-2.2 764.68 0.95 763.98 2.7L763.98 2.7 763.28 4.45 748.43 4.45 750.28-0.45Q746.13-2 746.13-8.2ZM782.83 0L782.83-34.55 800.88-34.55Q809.23-34.55 813.65-30.55 818.08-26.55 818.08-17.5L818.08-17.5Q818.08 0 800.18 0L800.18 0 782.83 0ZM801.03-20L799.63-20 799.63-11.35 801.03-11.35Q801.63-11.35 802.05-11.75 802.48-12.15 802.48-12.8L802.48-12.8 802.48-18.6Q802.48-19.2 802.05-19.6 801.63-20 801.03-20L801.03-20ZM820.92-14.73Q820.92-22.35 824.4-26.2 827.87-30.05 835.77-30.05 843.67-30.05 846.77-26.85 849.87-23.65 849.87-16.35L849.87-16.35 849.62-12.5 835.82-12.5 835.82-10.8Q837.07-10.5 839.47-10.5L839.47-10.5Q844.57-10.5 847.72-10.95L847.72-10.95 848.77-11.1 848.77-1.7Q848.37-1.45 847.5-1.07 846.62-0.7 843.32-0.1 840.02 0.5 835.97 0.5L835.97 0.5Q827.97 0.5 824.45-3.3 820.92-7.1 820.92-14.73ZM835.07-16.95L835.07-16.95 835.07-15 837.92-15 837.92-16.95Q837.92-17.6 837.5-18 837.07-18.4 836.45-18.4 835.82-18.4 835.45-18 835.07-17.6 835.07-16.95ZM866.87-15.85L866.87-15.85 866.87 0 852.72 0 852.72-29.55 865.27-29.55 865.77-25.9Q865.97-26.45 866.67-27.25 867.37-28.05 868.17-28.6L868.17-28.6Q870.37-30.05 874.02-30.05L874.02-30.05Q878.92-30.05 881.4-27.35 883.87-24.65 883.87-19.5L883.87-19.5 883.87 0 869.72 0 869.72-15.85Q869.72-16.45 869.3-16.88 868.87-17.3 868.27-17.3 867.67-17.3 867.27-16.88 866.87-16.45 866.87-15.85ZM906.22-9.95L906.22-8.85 908.42-8.85Q916.07-8.85 916.07-2.5L916.07-2.5Q916.07 0.85 913.67 2.75 911.27 4.65 905.22 4.65L905.22 4.65 896.97 4.65Q890.67 4.65 888.34 3 886.02 1.35 886.02-1.4L886.02-1.4Q886.02-6.95 891.82-6.95L891.82-6.95 892.92-6.95Q892.07-7.1 891.37-7.6 890.67-8.1 890.67-8.85L890.67-8.85Q890.67-10.35 893.12-10.8L893.12-10.8Q890.02-10.8 888.17-12.9 886.32-15 886.32-19L886.32-19Q886.32-24.55 889.19-27.08 892.07-29.6 898.57-29.6L898.57-29.6 915.92-29.6 915.92-15.6 914.22-15.6Q913.42-9.95 906.22-9.95L906.22-9.95ZM903.62-5.35L903.62-5.35 898.12-5.35Q897.47-5.35 897.07-4.98 896.67-4.6 896.67-3.98 896.67-3.35 897.07-2.93 897.47-2.5 898.12-2.5L898.12-2.5 903.62-2.5Q904.27-2.5 904.67-2.93 905.07-3.35 905.07-3.98 905.07-4.6 904.67-4.98 904.27-5.35 903.62-5.35ZM899.42-16.95L899.42-16.95 899.42-13.85Q899.42-12.45 900.82-12.45L900.82-12.45Q901.42-12.45 901.84-12.85 902.27-13.25 902.27-13.85L902.27-13.85 902.27-16.95Q902.27-17.6 901.84-18 901.42-18.4 900.79-18.4 900.17-18.4 899.79-18 899.42-17.6 899.42-16.95ZM948.27-18.9L948.27-18.9 948.02-12.75 949.27-12.8 949.27-1.45Q948.37-0.7 946.17-0.1 943.97 0.5 942.02 0.5 940.07 0.5 938.92 0.15 937.77-0.2 937.22-0.63 936.67-1.05 936.37-1.6L936.37-1.6Q935.92-2.4 935.92-2.95L935.92-2.95Q933.17 0.5 927.17 0.5L927.17 0.5Q918.92 0.5 918.92-6.5L918.92-6.5Q918.92-10.7 922.12-12.48 925.32-14.25 933.32-14.6L933.32-14.6Q933.32-16.35 929.47-16.35L929.47-16.35Q926.87-16.35 924.49-15.7 922.12-15.05 921.07-14.4L921.07-14.4 919.97-13.75 919.97-26.9Q920.42-27.25 921.32-27.78 922.22-28.3 925.57-29.18 928.92-30.05 932.92-30.05L932.92-30.05Q940.92-30.05 944.59-27.35 948.27-24.65 948.27-18.9ZM934.12-10.95L934.12-10.95 934.12-12.95 931.27-12.15 931.27-10.95Q931.27-10.3 931.69-9.9 932.12-9.5 932.74-9.5 933.37-9.5 933.74-9.9 934.12-10.3 934.12-10.95ZM965.96-15.85L965.96-15.85 965.96 0 951.81 0 951.81-29.55 964.36-29.55 964.86-25.9Q965.06-26.45 965.76-27.25 966.46-28.05 967.26-28.6L967.26-28.6Q969.46-30.05 973.11-30.05L973.11-30.05Q978.01-30.05 980.49-27.35 982.96-24.65 982.96-19.5L982.96-19.5 982.96 0 968.81 0 968.81-15.85Q968.81-16.45 968.39-16.88 967.96-17.3 967.36-17.3 966.76-17.3 966.36-16.88 965.96-16.45 965.96-15.85ZM1023.16-34.55L1040.41-34.55 1040.41 0 1023.16 0 1023.16-12.5 1020.96-6.7 1019.66-6.7 1017.36-12.5 1017.36 0 1000.16 0 1000.16-34.55 1017.36-34.55 1019.66-27.9 1020.96-27.9 1023.16-34.55ZM1060.26-13.1L1060.26-29.55 1074.41-29.55 1074.41 0 1061.81 0 1061.31-3.65Q1061.11-3.1 1060.41-2.3 1059.71-1.5 1058.91-0.95L1058.91-0.95Q1056.71 0.5 1053.11 0.5L1053.11 0.5Q1048.21 0.5 1045.73-2.2 1043.26-4.9 1043.26-10L1043.26-10 1043.26-29.55 1057.41-29.55 1057.41-13.1Q1057.41-12.5 1057.83-12.08 1058.26-11.65 1058.86-11.65 1059.46-11.65 1059.86-12.08 1060.26-12.5 1060.26-13.1L1060.26-13.1ZM1108.45-37.25L1108.45 0 1095.85 0 1095.35-3.65Q1095.15-3.1 1094.53-2.3 1093.9-1.5 1093.2-0.95L1093.2-0.95Q1091.35 0.5 1088.45 0.5L1088.45 0.5Q1083.2 0.5 1080.25-3.5 1077.3-7.5 1077.3-14.68 1077.3-21.85 1080.3-25.95 1083.3-30.05 1088.5-30.05L1088.5-30.05Q1090.1-30.05 1091.35-29.68 1092.6-29.3 1093.05-28.95L1093.05-28.95 1093.5-28.6 1093.5-37.25 1108.45-37.25ZM1091.45-15.15L1091.45-15.15 1091.45-10.95Q1091.45-10.3 1091.83-9.9 1092.2-9.5 1092.83-9.5 1093.45-9.5 1093.88-9.9 1094.3-10.3 1094.3-10.95L1094.3-10.95 1094.3-15.15Q1094.3-15.75 1093.88-16.18 1093.45-16.6 1092.85-16.6 1092.25-16.6 1091.85-16.18 1091.45-15.75 1091.45-15.15ZM1140.7-18.9L1140.7-18.9 1140.45-12.75 1141.7-12.8 1141.7-1.45Q1140.8-0.7 1138.6-0.1 1136.4 0.5 1134.45 0.5 1132.5 0.5 1131.35 0.15 1130.2-0.2 1129.65-0.63 1129.1-1.05 1128.8-1.6L1128.8-1.6Q1128.35-2.4 1128.35-2.95L1128.35-2.95Q1125.6 0.5 1119.6 0.5L1119.6 0.5Q1111.35 0.5 1111.35-6.5L1111.35-6.5Q1111.35-10.7 1114.55-12.48 1117.75-14.25 1125.75-14.6L1125.75-14.6Q1125.75-16.35 1121.9-16.35L1121.9-16.35Q1119.3-16.35 1116.93-15.7 1114.55-15.05 1113.5-14.4L1113.5-14.4 1112.4-13.75 1112.4-26.9Q1112.85-27.25 1113.75-27.78 1114.65-28.3 1118-29.18 1121.35-30.05 1125.35-30.05L1125.35-30.05Q1133.35-30.05 1137.03-27.35 1140.7-24.65 1140.7-18.9ZM1126.55-10.95L1126.55-10.95 1126.55-12.95 1123.7-12.15 1123.7-10.95Q1123.7-10.3 1124.13-9.9 1124.55-9.5 1125.18-9.5 1125.8-9.5 1126.18-9.9 1126.55-10.3 1126.55-10.95ZM1175.4 0L1161.25 0 1161.25-15.85Q1161.25-16.45 1160.82-16.88 1160.4-17.3 1159.8-17.3 1159.2-17.3 1158.8-16.88 1158.4-16.45 1158.4-15.85L1158.4-15.85 1158.4 0 1144.25 0 1144.25-37.25 1159.15-37.25 1159.15-30.95 1158.65-26.65Q1158.85-27.3 1159.35-27.95 1159.85-28.6 1161.5-29.33 1163.15-30.05 1165.55-30.05L1165.55-30.05Q1170.45-30.05 1172.92-27.35 1175.4-24.65 1175.4-19.5L1175.4-19.5 1175.4 0Z" opacity="1" transform="matrix(1,0,0,1,0,0)" fill="#8eaec4" class="slogan-text-1" data-fill-palette-color="secondary" id="text-1"></path></svg></g></svg></g></svg></g></svg></g><g transform="matrix(1,0,0,1,166.9630534448423,0)"><svg viewBox="0 0 63.5714931103153 61.45244333997146" height="61.45244333997146" width="63.5714931103153"><g><svg xmlns="http://www.w3.org/2000/svg" viewBox="2 4 60 58" x="0" y="0" height="61.45244333997146" width="63.5714931103153" class="icon-icon-0" data-fill-palette-color="accent" id="icon-0"><g fill="#283132" data-fill-palette-color="accent"><rect x="32" y="56" width="2" height="2" fill="#283132" data-fill-palette-color="accent"></rect><rect x="28" y="56" width="2" height="2" fill="#283132" data-fill-palette-color="accent"></rect><path d="M58 32H59A1 1 0 0 0 60 31V25A1 1 0 0 0 59 24H50V16H51A1 1 0 0 0 52 15V9A1 1 0 0 0 51 8H13A1 1 0 0 0 12 9V15A1 1 0 0 0 13 16H14V40H5A1 1 0 0 0 4 41V47A1 1 0 0 0 5 48H6V60H2V62H62V60H58ZM58 30H47V26H58ZM39 32H45V36H39ZM39 30V26H45V30ZM26 30V26H37V30ZM50 14H37V10H50ZM29 16H35V20H29ZM29 14V10H35V14ZM14 10H27V14H14ZM16 16H27V21A1 1 0 0 0 28 22H36A1 1 0 0 0 37 21V16H48V24H25A1 1 0 0 0 24 25V31A1 1 0 0 0 25 32H26V40H16ZM27 46V42H38V46ZM19 48H25V52H19ZM19 46V42H25V46ZM6 42H17V46H6ZM8 60V48H17V53A1 1 0 0 0 18 54H26A1 1 0 0 0 27 53V48H36V60ZM38 60V48H39A1 1 0 0 0 40 47V41A1 1 0 0 0 39 40H28V32H37V37A1 1 0 0 0 38 38H46A1 1 0 0 0 47 37V32H56V60Z" fill="#283132" data-fill-palette-color="accent"></path><rect x="52" y="56" width="2" height="2" fill="#283132" data-fill-palette-color="accent"></rect><rect x="48" y="56" width="2" height="2" fill="#283132" data-fill-palette-color="accent"></rect><rect x="60" y="38" width="2" height="15" fill="#283132" data-fill-palette-color="accent"></rect><rect x="10" y="19" width="2" height="16" fill="#283132" data-fill-palette-color="accent"></rect><rect x="23" y="4" width="22" height="2" fill="#283132" data-fill-palette-color="accent"></rect><rect x="47" y="4" width="2" height="2" fill="#283132" data-fill-palette-color="accent"></rect></g></svg></g></svg></g><g></g></svg></g></svg></g></svg></g><defs></defs></svg><rect width="395.52" height="247.2" fill="none" stroke="none" visibility="hidden"></rect></g></svg></g></svg>